<?xml version="1.0" standalone="no"?>
<!DOCTYPE svg PUBLIC "-//W3C//DTD SVG 20010904//EN" "http://www.w3.org/TR/2001/REC-SVG-20010904/DTD/svg10.dtd">
<svg xmlns="http://www.w3.org/2000/svg" width="500" height="500" viewBox="0 0 500 500">
  <circle cx="250" cy="250" r="250" fill="#371476"/>
  <path fill="#371476" d="M236 437C202 433 164 416 136 393C128 387 113 372 113 370C113 370 123 358 125 356C127 354 162 314 180 295C188 285 193 281 194 281C197 281 201 285 240 330L261 355L264 353C265 352 274 342 284 331C316 296 346 263 358 250C364 243 372 234 375 231C379 227 382 224 383 224C384 224 390 230 409 251L421 265L422 265C423 264 429 235 435 202C437 196 438 191 438 190L439 190L440 190C441 191 446 205 448 218C449 224 450 235 451 243C452 280 443 316 422 348C392 397 338 431 279 437C268 438 247 438 236 437Z M98 352C96 348 92 341 89 335L84 326L85 324C100 307 147 253 182 214C187 208 192 203 193 203C194 203 197 205 199 208C204 215 251 269 257 275L261 279L281 256C292 244 309 225 319 214C329 203 340 191 345 186L353 177L338 162L323 147L323 147C324 146 343 140 388 128C436 115 440 114 441 115C441 116 440 120 425 195C420 217 416 235 416 235L416 236L415 236C414 236 407 229 399 220C391 211 385 204 384 204L383 203L367 220C359 230 340 250 327 265C313 279 293 301 282 313C271 324 262 334 262 334C261 334 257 329 224 292C209 275 196 260 195 260L194 259L175 281C115 348 106 357 104 358L102 358L98 352Z M75 301C58 245 69 184 105 137C124 111 147 92 175 78C229 52 292 53 344 79C364 89 391 109 391 113C390 114 380 118 345 127C338 129 325 132 314 135L295 140L295 141C296 142 304 150 314 158C324 167 333 175 333 176C334 177 334 178 333 179C332 181 319 195 304 212C289 228 273 245 269 250C265 254 261 258 260 258C259 258 234 229 205 195C199 188 193 182 193 182C193 182 185 190 176 200C168 210 158 221 155 225C152 228 147 234 144 238C140 241 129 254 119 266C108 278 95 293 90 299C85 305 80 310 79 310L77 310L75 301Z"/>
  <path fill="#59309f" d="M234 435C192 430 154 411 124 381L114 371L115 369C115 368 121 362 127 356C133 349 147 333 158 321C191 283 193 281 194 281C195 281 202 289 210 298C218 307 233 324 243 335L261 356L262 356C262 356 276 341 292 324C307 307 334 277 351 258L382 224L383 225C384 225 393 234 403 246C413 257 422 266 422 266L423 266L427 247C429 236 433 219 435 210L439 192L440 192L441 192L443 199C451 225 452 259 446 287C441 313 429 339 413 361C400 378 378 397 359 409C322 431 275 441 234 435Z M98 352C96 348 92 341 89 335L84 326L85 324C100 307 147 253 182 214C187 208 192 203 193 203C194 203 197 205 199 208C204 215 251 269 257 275L261 279L281 256C292 244 309 225 319 214C329 203 340 191 345 186L353 177L338 162L323 147L323 147C324 146 343 140 388 128C436 115 440 114 441 115C441 116 440 120 425 195C420 217 416 235 416 235L416 236L415 236C414 236 407 229 399 220C391 211 385 204 384 204L383 203L367 220C359 230 340 250 327 265C313 279 293 301 282 313C271 324 262 334 262 334C261 334 257 329 224 292C209 275 196 260 195 260L194 259L175 281C115 348 106 357 104 358L102 358L98 352Z M75 301C58 245 69 184 105 137C124 111 147 92 175 78C229 52 292 53 344 79C364 89 391 109 391 113C390 114 380 118 345 127C338 129 325 132 314 135L295 140L295 141C296 142 304 150 314 158C324 167 333 175 333 176C334 177 334 178 333 179C332 181 319 195 304 212C289 228 273 245 269 250C265 254 261 258 260 258C259 258 234 229 205 195C199 188 193 182 193 182C193 182 185 190 176 200C168 210 158 221 155 225C152 228 147 234 144 238C140 241 129 254 119 266C108 278 95 293 90 299C85 305 80 310 79 310L77 310L75 301Z"/>
  <path fill="#a569f5" d="M381 352C370 340 356 324 349 317C342 310 334 301 331 297C328 294 325 290 325 289C326 288 382 226 383 226C384 226 411 256 419 266L422 269L423 268C424 266 426 258 434 219C437 205 439 194 439 194L440 194L442 200C447 216 448 228 448 249C448 270 447 278 443 296C438 315 430 333 419 350C413 359 402 373 401 373C401 373 392 363 381 352Z M99 350C97 347 93 340 91 335L86 326L88 324C89 322 95 315 103 307C124 282 182 216 187 210C190 207 193 205 193 205C194 205 211 224 224 240C234 252 259 280 260 281L261 281L280 260C343 191 355 177 355 176C355 176 348 169 341 162C333 155 326 148 326 148L326 147L335 145C340 143 358 138 376 134C393 129 414 123 423 121C431 119 438 117 439 117C439 117 435 137 430 160C416 225 415 233 414 233C414 233 407 226 399 218C391 209 384 202 384 202C383 202 377 207 370 215C364 222 353 234 346 241C339 248 323 266 310 281C296 295 280 312 274 319C268 326 262 332 262 332C261 332 257 326 251 320C246 314 232 299 221 286C209 272 199 261 197 259L195 257L194 257C194 257 185 267 175 278C131 327 105 356 104 356C103 356 101 353 99 350Z M77 303C63 258 67 211 87 168C102 137 128 109 157 90C172 80 195 71 213 66C240 59 277 59 306 66C330 72 358 86 380 104L389 111L389 112C388 113 376 117 319 133C305 136 293 139 293 140L292 140L293 142C294 143 303 151 313 159C323 168 332 176 332 177C332 178 332 179 308 205C298 216 284 232 276 241L261 257L260 256C259 256 252 247 214 203C203 190 193 180 193 180C193 180 184 189 175 200C80 308 81 307 79 308L78 308L77 303Z"/>
</svg>
