<?xml version="1.0" standalone="no"?>

<!DOCTYPE svg PUBLIC "-//W3C//DTD SVG 20010904//EN"

 "http://www.w3.org/TR/2001/REC-SVG-20010904/DTD/svg10.dtd">

<svg xmlns="http://www.w3.org/2000/svg" width="500" height="500" viewBox="0 0 500 500">

  <!-- 移除背景路径 -->

  <path fill="#371476" d="
M236 437

C202 433 164 416 136 393

C128 387 113 372 113 370

C113 370 123 358 125 356

C127 354 162 314 180 295

C188 285 193 281 194 281

C197 281 201 285 240 330

L261 355

L264 353

C265 352 274 342 284 331

C316 296 346 263 358 250

C364 243 372 234 375 231

C379 227 382 224 383 224

C384 224 390 230 409 251

L421 265

L422 265

C423 264 429 235 435 202

C437 196 438 191 438 190

L439 190

L440 190

C441 191 446 205 448 218

C449 224 450 235 451 243

C452 280 443 316 422 348

C392 397 338 431 279 437

C268 438 247 438 236 437

Z

M98 352

C96 348 92 341 89 335

L84 326

L85 324

C100 307 147 253 182 214

C187 208 192 203 193 203

C194 203 197 205 199 208

C204 215 251 269 257 275

L261 279

L281 256

C292 244 309 225 319 214

C329 203 340 191 345 186

L353 177

L338 162

L323 147

L323 147

C324 146 343 140 388 128

C436 115 440 114 441 115

C441 116 440 120 425 195

C420 217 416 235 416 235

L416 236

L415 236

C414 236 407 229 399 220

C391 211 385 204 384 204

L383 203

L367 220

C359 230 340 250 327 265

C313 279 293 301 282 313

C271 324 262 334 262 334

C261 334 257 329 224 292

C209 275 196 260 195 260

L194 259

L175 281

C115 348 106 357 104 358

L102 358

L98 352

Z

M75 301

C58 245 69 184 105 137

C124 111 147 92 175 78

C229 52 292 53 344 79

C364 89 391 109 391 113

C390 114 380 118 345 127

C338 129 325 132 314 135

L295 140

L295 141

C296 142 304 150 314 158

C324 167 333 175 333 176

C334 177 334 178 333 179

C332 181 319 195 304 212

C289 228 273 245 269 250

C265 254 261 258 260 258

C259 258 234 229 205 195

C199 188 193 182 193 182

C193 182 185 190 176 200

C168 210 158 221 155 225

C152 228 147 234 144 238

C140 241 129 254 119 266

C108 278 95 293 90 299

C85 305 80 310 79 310

L77 310

L75 301

Z

"/>

<path fill="#59309f" d="
M234 435

C192 430 154 411 124 381

L114 371

L115 369

C115 368 121 362 127 356

C133 349 147 333 158 321

C191 283 193 281 194 281

C195 281 202 289 210 298

C218 307 233 324 243 335

L261 356

L262 356

C262 356 276 341 292 324

C307 307 334 277 351 258

L382 224

L383 225

C384 225 393 234 403 246

C413 257 422 266 422 266

L423 266

L427 247

C429 236 433 219 435 210

L439 192

L440 192

L441 192

L443 199

C451 225 452 259 446 287

C441 313 429 339 413 361

C400 378 378 397 359 409

C322 431 275 441 234 435

Z

M98 352

C96 348 92 341 89 335

L84 326

L85 324

C100 307 147 253 182 214

C187 208 192 203 193 203

C194 203 197 205 199 208

C204 215 251 269 257 275

L261 279

L281 256

C292 244 309 225 319 214

C329 203 340 191 345 186

L353 177

L338 162

L323 147

L323 147

C324 146 343 140 388 128

C436 115 440 114 441 115

C441 116 440 120 425 195

C420 217 416 235 416 235

L416 236

L415 236

C414 236 407 229 399 220

C391 211 385 204 384 204

L383 203

L367 220

C359 230 340 250 327 265

C313 279 293 301 282 313

C271 324 262 334 262 334

C261 334 257 329 224 292

C209 275 196 260 195 260

L194 259

L175 281

C115 348 106 357 104 358

L102 358

L98 352

Z

M75 301

C58 245 69 184 105 137

C124 111 147 92 175 78

C229 52 292 53 344 79

C364 89 391 109 391 113

C390 114 380 118 345 127

C338 129 325 132 314 135

L295 140

L295 141

C296 142 304 150 314 158

C324 167 333 175 333 176

C334 177 334 178 333 179

C332 181 319 195 304 212

C289 228 273 245 269 250

C265 254 261 258 260 258

C259 258 234 229 205 195

C199 188 193 182 193 182

C193 182 185 190 176 200

C168 210 158 221 155 225

C152 228 147 234 144 238

C140 241 129 254 119 266

C108 278 95 293 90 299

C85 305 80 310 79 310

L77 310

L75 301

Z

"/>

<path fill="#6b39cf" d="
M236 435

C203 430 172 418 145 398

L136 391

L137 389

C137 388 143 382 149 376

C155 369 169 353 180 341

C187 335 192 331 193 331

C193 331 199 337 205 345

C213 354 228 371 237 382

L255 399

L256 399

C256 399 270 384 286 367

C302 350 329 320 346 299

L376 264

L377 265

C377 265 391 273 407 290

C423 307 432 316 432 316

L433 316

L437 297

C439 286 443 269 445 260

L449 242

L450 242

L451 242

L453 249

C461 275 462 309 456 337

C446 363 434 389 418 411

C405 423 399 430 389 440

C360 469 328 485 296 493

C265 495 231 497 236 435

Z

M98 352

C96 348 92 341 89 335

L84 326

L85 324

C100 307 147 253 182 214

C187 208 192 203 193 203

C194 203 197 205 199 208

C204 215 251 269 257 275

L261 279

L281 256

C292 244 309 225 319 214

C329 203 340 191 345 186

L353 177

L338 162

L323 147

L323 147

C324 146 343 140 388 128

C436 115 440 114 441 115

C441 116 440 120 425 195

C420 217 416 235 416 235

L416 236

L415 236

C414 236 407 229 399 220

C391 211 385 204 384 204

L383 203

L367 220

C359 230 340 250 327 265

C313 279 293 301 282 313

C271 324 262 334 262 334

C261 334 257 329 224 292

C209 275 196 260 195 260

L194 259

L175 281

C115 348 106 357 104 358

L102 358

L98 352

Z

M75 301

C58 245 69 184 105 137

C124 111 147 92 175 78

C229 52 292 53 344 79

C364 89 391 109 391 113

C390 114 380 118 345 127

C338 129 325 132 314 135

L295 140

L295 141

C296 142 304 150 314 158

C324 167 333 175 333 176

C334 177 334 178 333 179

C332 181 319 195 304 212

C289 228 273 245 269 250

C265 254 261 258 260 258

C259 258 234 229 205 195

C199 188 193 182 193 182

C193 182 185 190 176 200

C168 210 158 221 155 225

C152 228 147 234 144 238

C140 241 129 254 119 266

C108 278 95 293 90 299

C85 305 80 310 79 310

L77 310

L75 301

Z

"/>

<path fill="#a569f5" d="
M381 352

C370 340 356 324 349 317

C342 310 334 301 331 297

C328 294 325 290 325 289

C326 288 382 226 383 226

C384 226 411 256 419 266

L422 269

L423 268

C424 266 426 258 434 219

C437 205 439 194 439 194

L440 194

L442 200

C447 216 448 228 448 249

C448 270 447 278 443 296

C438 315 430 333 419 350

C413 359 402 373 401 373

C401 373 392 363 381 352

Z

M99 350

C97 347 93 340 91 335

L86 326

L88 324

C89 322 95 315 103 307

C124 282 182 216 187 210

C190 207 193 205 193 205

C194 205 211 224 224 240

C234 252 259 280 260 281

L261 281

L280 260

C343 191 355 177 355 176

C355 176 348 169 341 162

C333 155 326 148 326 148

L326 147

L335 145

C340 143 358 138 376 134

C393 129 414 123 423 121

C431 119 438 117 439 117

C439 117 435 137 430 160

C416 225 415 233 414 233

C414 233 407 226 399 218

C391 209 384 202 384 202

C383 202 377 207 370 215

C364 222 353 234 346 241

C339 248 323 266 310 281

C296 295 280 312 274 319

C268 326 262 332 262 332

C261 332 257 326 251 320

C246 314 232 299 221 286

C209 272 199 261 197 259

L195 257

L194 257

C194 257 185 267 175 278

C131 327 105 356 104 356

C103 356 101 353 99 350

Z

M77 303

C63 258 67 211 87 168

C102 137 128 109 157 90

C172 80 195 71 213 66

C240 59 277 59 306 66

C330 72 358 86 380 104

L389 111

L389 112

C388 113 376 117 319 133

C305 136 293 139 293 140

L292 140

L293 142

C294 143 303 151 313 159

C323 168 332 176 332 177

C332 178 332 179 308 205

C298 216 284 232 276 241

L261 257

L260 256

C259 256 252 247 214 203

C203 190 193 180 193 180

C193 180 184 189 175 200

C80 308 81 307 79 308

L78 308

L77 303

Z

"/>

</svg>

